<?xml version="1.0" encoding="UTF-8"?>
<svg width="627px" height="373px" viewBox="0 0 627 373" version="1.1" xmlns="http://www.w3.org/2000/svg" xmlns:xlink="http://www.w3.org/1999/xlink">
    <!-- Generator: Sketch 46.2 (44496) - http://www.bohemiancoding.com/sketch -->
    <title>TAPEX Premining Node</title>
    <desc>Created with Sketch.</desc>
    <defs>
        <path d="M428.914008,2.05130336 L612.914008,0.0733640351 L612.914008,0.0733640351 C617.33203,0.0258717474 620.952046,3.56888672 620.999538,7.98690946 C620.999846,8.01557256 621,8.0442371 621,8.07290185 L621,365 L621,365 C621,369.418278 617.418278,373 613,373 L429,373 L429,373 C424.581722,373 421,369.418278 421,365 L421,298.945838 L421,10.0508412 L421,10.0508412 C421,5.66610869 424.529528,2.09843507 428.914008,2.05130336 Z" id="path-1"></path>
        <rect id="path-2" x="0" y="0" width="158" height="25" rx="8"></rect>
        <path d="M11,0.00109880395 L140,0.00109880395 L149,0.00109880395 L149,0.00109880395 C153.970563,0.00109880395 158,4.03053606 158,9.0010988 L158,54.0010988 L158,54.0010988 C158,60.0762311 153.075132,65.0010988 147,65.0010988 L11,65.0010988 L11,65.0010988 C4.92486775,65.0010988 7.43989126e-16,60.0762311 0,54.0010988 L0,11.0010988 L0,11.0010988 C-7.43989126e-16,4.92596656 4.92486775,0.00109880395 11,0.00109880395 Z" id="path-3"></path>
        <rect id="path-4" x="0" y="0" width="148" height="25" rx="8"></rect>
        <rect id="path-5" x="0" y="0" width="148" height="25" rx="8"></rect>
        <rect id="path-6" x="3" y="3" width="152" height="28" rx="8"></rect>
        <path d="M11,-1.14448381e-15 L140,-1.14448381e-15 L149,-1.14448381e-15 L149,-1.77635684e-15 C153.970563,-2.68947191e-15 158,4.02943725 158,9 L158,54 L158,54 C158,60.0751322 153.075132,65 147,65 L11,65 L11,65 C4.92486775,65 7.06133433e-15,60.0751322 -1.77635684e-15,54 L0,11 L0,11 C-7.43989126e-16,4.92486775 4.92486775,-6.60279123e-16 11,-1.77635684e-15 Z" id="path-7"></path>
        <rect id="path-8" x="0" y="0" width="148" height="25" rx="8"></rect>
        <rect id="path-9" x="0" y="0" width="148" height="25" rx="8"></rect>
        <rect id="path-10" x="0" y="0" width="158" height="23" rx="8"></rect>
        <path d="M8,0 L140,0 L150,0 L150,0 C154.418278,-8.11633746e-16 158,3.581722 158,8 L158,51 L158,51 C158,55.418278 154.418278,59 150,59 L8,59 L8,59 C3.581722,59 5.41083001e-16,55.418278 0,51 L0,8 L0,8 C-5.41083001e-16,3.581722 3.581722,-9.64723093e-16 8,-1.77635684e-15 Z" id="path-11"></path>
        <rect id="path-12" x="0" y="0" width="148" height="25" rx="8"></rect>
    </defs>
    <g id="Page-1" stroke="none" stroke-width="1" fill="none" fill-rule="evenodd">
        <g id="Sidechain_Withdrawal" transform="translate(-266.000000, -293.000000)">
            <g id="TAPEX-Premining-Node" transform="translate(272.000000, 293.000000)">
                <g id="Premining-Node">
                    <use fill="#CCD7E5" fill-rule="evenodd" xlink:href="#path-1"></use>
                    <path stroke="#828C86" stroke-width="1" d="M428.919382,2.55127447 C424.808933,2.59546045 421.5,5.94015447 421.5,10.0508412 L421.5,365 C421.5,369.142136 424.857864,372.5 429,372.5 L613,372.5 C617.142136,372.5 620.5,369.142136 620.5,365 L620.5,8.07290185 C620.499928,8.03259214 620.499928,8.03259214 620.499567,7.99228398 C620.455043,3.85038766 617.061278,0.528811129 612.919382,0.573335149 L428.919382,2.55127447 Z"></path>
                </g>
                <path d="M521,339.5 L521,149.5" id="Line-5" stroke="#828C96" stroke-width="3" stroke-linecap="square"></path>
                <path d="M520.5,148.5 L520.5,74.5" id="Line-5" stroke="#828C96" stroke-width="3" stroke-linecap="square" stroke-dasharray="4,4"></path>
                <text font-family="OpenSans-Regular, Open Sans" font-size="12" font-weight="normal" fill="#000000">
                    <tspan x="450.545898" y="23">Sidechain Gateway Node</tspan>
                    <tspan x="444.759766" y="40">(1 per Federation Member)</tspan>
                </text>
                <g id="X-Block-Later" transform="translate(442.000000, 55.000000)">
                    <g id="X-Block-Later-Block">
                        <use fill="#FFFFFF" fill-rule="evenodd" xlink:href="#path-2"></use>
                        <rect stroke="#828C96" stroke-width="1" x="0.5" y="0.5" width="157" height="24" rx="8"></rect>
                    </g>
                    <text id="X-Block-Later-Block" font-family="OpenSans-Regular, Open Sans" font-size="12" font-weight="normal" fill="#000000">
                        <tspan x="36.7392578" y="17">10 Blocks Later</tspan>
                    </text>
                </g>
                <g id="Withdrawal-Block" transform="translate(442.000000, 110.000000)">
                    <g id="Premining-Block">
                        <use fill="#FFFFFF" fill-rule="evenodd" xlink:href="#path-3"></use>
                        <path stroke="#828C96" stroke-width="1" d="M11,0.501098804 C5.20101013,0.501098804 0.5,5.20210893 0.5,11.0010988 L0.5,54.0010988 C0.5,59.8000887 5.20101013,64.5010988 11,64.5010988 L147,64.5010988 C152.79899,64.5010988 157.5,59.8000887 157.5,54.0010988 L157.5,9.0010988 C157.5,4.30667843 153.69442,0.501098804 149,0.501098804 L11,0.501098804 Z"></path>
                    </g>
                    <g id="UTXO" transform="translate(5.000000, 35.000000)">
                        <g id="Rectangle-3">
                            <use fill="#C95383" fill-rule="evenodd" xlink:href="#path-4"></use>
                            <rect x="0" y="0" width="148" height="25" rx="8"></rect>
                        </g>
                        <text id="50-TAPEX" font-family="OpenSans-Regular, Open Sans" font-size="10" font-weight="normal" fill="#FFFFFF">
                            <tspan x="85.8833645" y="12">50 TAPEX</tspan>
                        </text>
                        <g id="Lock" transform="translate(4.000000, 2.000000)">
                            <path d="M20.958,10.5064972 C20.958,16.2859061 16.2729116,20.9709945 10.4935028,20.9709945 C4.71409392,20.9709945 0.0290055249,16.2859061 0.0290055249,10.5064972 C0.0290055249,4.7270884 4.71409392,0.042 10.4935028,0.042 C16.2729116,0.042 20.958,4.7270884 20.958,10.5064972" id="Fill-1" fill="#FAFAF9"></path>
                            <path d="M20.958,10.5064972 C20.958,16.2859061 16.2729116,20.9709945 10.4935028,20.9709945 C4.71409392,20.9709945 0.0290055249,16.2859061 0.0290055249,10.5064972 C0.0290055249,4.7270884 4.71409392,0.042 10.4935028,0.042 C16.2729116,0.042 20.958,4.7270884 20.958,10.5064972 Z" id="Stroke-2" stroke="#C5D3DD"></path>
                            <path d="M20.958,10.5064972 C20.958,16.2859061 16.2729116,20.9709945 10.4935028,20.9709945 C4.71409392,20.9709945 0.0290055249,16.2859061 0.0290055249,10.5064972 C0.0290055249,4.7270884 4.71409392,0.042 10.4935028,0.042 C16.2729116,0.042 20.958,4.7270884 20.958,10.5064972 Z" id="Stroke-2" stroke="#C5D3DD"></path>
                            <path d="M11.2318674,13.2007044 C11.2333757,13.2199641 11.234768,13.2392818 11.234768,13.2590055 L11.234768,13.980489 C11.234768,14.3898729 10.9029448,14.7218122 10.4935028,14.7218122 C10.0840608,14.7218122 9.75217956,14.3898729 9.75217956,13.980489 L9.75217956,13.2590055 C9.75217956,13.2392818 9.75362983,13.2199641 9.75513812,13.2007044 C9.0699116,12.9122735 8.58882597,12.2345884 8.58882597,11.4444779 C8.58882597,10.3925635 9.4415884,9.5398011 10.4935028,9.5398011 C11.5454751,9.5398011 12.3981796,10.3925635 12.3981796,11.4444779 C12.3981796,12.2345884 11.9170939,12.9122735 11.2318674,13.2007044 Z M14.6939669,8.16702762 L6.29303867,8.16702762 C6.03819613,8.16702762 5.83161878,8.37360497 5.83161878,8.62844751 L5.83161878,15.7164116 C5.83161878,15.9711961 6.03819613,16.1778315 6.29303867,16.1778315 L14.6939669,16.1778315 C14.9488094,16.1778315 15.1553867,15.9711961 15.1553867,15.7164116 L15.1553867,8.62844751 C15.1553867,8.37360497 14.9488094,8.16702762 14.6939669,8.16702762 L14.6939669,8.16702762 Z" id="Fill-4" fill="#277CB3"></path>
                            <path d="M13.0284116,8.57310497 L13.0280055,7.3269116 C13.0208702,5.93760497 11.8839116,4.80644751 10.4935028,4.80644751 C9.10286188,4.80644751 7.9658453,5.93777901 7.95905801,7.32830387 L7.95859392,8.57310497 L6.47606354,8.57310497 L6.47948619,7.3226768 C6.49033425,5.11918508 8.29105525,3.32687569 10.4935028,3.32687569 C12.6960663,3.32687569 14.4967293,5.11866298 14.5075193,7.32105249 L14.510942,8.57310497 L13.0284116,8.57310497" id="Fill-5" fill="#277CB3"></path>
                        </g>
                    </g>
                    <g id="UTXO" transform="translate(5.000000, 5.000000)">
                        <g id="Rectangle-3">
                            <use fill="#4EA8B2" fill-rule="evenodd" xlink:href="#path-5"></use>
                            <rect x="0" y="0" width="148" height="25" rx="8"></rect>
                        </g>
                        <text id="50-TAPEX" font-family="OpenSans-Regular, Open Sans" font-size="10" font-weight="normal" fill="#FFFFFF">
                            <tspan x="85.7529297" y="17">50 TAPEX</tspan>
                        </text>
                        <g id="Lock" transform="translate(4.000000, 2.000000)">
                            <path d="M19.96,10.0061878 C19.96,15.5103867 15.498011,19.9723757 9.99381215,19.9723757 C4.48961326,19.9723757 0.0276243094,15.5103867 0.0276243094,10.0061878 C0.0276243094,4.50198895 4.48961326,0.04 9.99381215,0.04 C15.498011,0.04 19.96,4.50198895 19.96,10.0061878" id="Fill-1" fill="#FAFAF9"></path>
                            <path d="M19.96,10.0061878 C19.96,15.5103867 15.498011,19.9723757 9.99381215,19.9723757 C4.48961326,19.9723757 0.0276243094,15.5103867 0.0276243094,10.0061878 C0.0276243094,4.50198895 4.48961326,0.04 9.99381215,0.04 C15.498011,0.04 19.96,4.50198895 19.96,10.0061878 Z" id="Stroke-2" stroke="#C5D3DD"></path>
                            <path d="M19.96,10.0061878 C19.96,15.5103867 15.498011,19.9723757 9.99381215,19.9723757 C4.48961326,19.9723757 0.0276243094,15.5103867 0.0276243094,10.0061878 C0.0276243094,4.50198895 4.48961326,0.04 9.99381215,0.04 C15.498011,0.04 19.96,4.50198895 19.96,10.0061878 Z" id="Stroke-2" stroke="#C5D3DD"></path>
                            <path d="M10.6970166,12.5720994 C10.698453,12.590442 10.699779,12.6088398 10.699779,12.6276243 L10.699779,13.3147514 C10.699779,13.7046409 10.3837569,14.0207735 9.99381215,14.0207735 C9.6038674,14.0207735 9.28779006,13.7046409 9.28779006,13.3147514 L9.28779006,12.6276243 C9.28779006,12.6088398 9.28917127,12.590442 9.29060773,12.5720994 C8.63801105,12.2974033 8.17983425,11.651989 8.17983425,10.8995028 C8.17983425,9.89767956 8.99198895,9.08552486 9.99381215,9.08552486 C10.9956906,9.08552486 11.8077901,9.89767956 11.8077901,10.8995028 C11.8077901,11.651989 11.3496133,12.2974033 10.6970166,12.5720994 Z M13.9942541,7.77812155 L5.99337017,7.77812155 C5.75066298,7.77812155 5.55392265,7.97486188 5.55392265,8.21756906 L5.55392265,14.968011 C5.55392265,15.210663 5.75066298,15.4074586 5.99337017,15.4074586 L13.9942541,15.4074586 C14.2369613,15.4074586 14.4337017,15.210663 14.4337017,14.968011 L14.4337017,8.21756906 C14.4337017,7.97486188 14.2369613,7.77812155 13.9942541,7.77812155 L13.9942541,7.77812155 Z" id="Fill-4" fill="#277CB3"></path>
                            <path d="M12.408011,8.16486188 L12.4076243,6.97801105 C12.4008287,5.65486188 11.318011,4.57756906 9.99381215,4.57756906 C8.66939227,4.57756906 7.58651934,5.65502762 7.58005525,6.97933702 L7.57961326,8.16486188 L6.16767956,8.16486188 L6.17093923,6.9739779 C6.18127072,4.87541436 7.89624309,3.16845304 9.99381215,3.16845304 C12.0914917,3.16845304 13.8064088,4.87491713 13.8166851,6.97243094 L13.8199448,8.16486188 L12.408011,8.16486188" id="Fill-5" fill="#277CB3"></path>
                        </g>
                    </g>
                    <g id="Rectangle-5">
                        <use fill-opacity="0" fill="#000000" fill-rule="evenodd" xlink:href="#path-6"></use>
                        <rect stroke="#765F97" stroke-width="3" x="4.5" y="4.5" width="149" height="25" rx="8"></rect>
                    </g>
                </g>
                <g id="Deposit-Block" transform="translate(442.000000, 185.000000)">
                    <g id="Premining-Block">
                        <use fill="#FFFFFF" fill-rule="evenodd" xlink:href="#path-7"></use>
                        <path stroke="#828C96" stroke-width="1" d="M11,0.5 C5.20101013,0.5 0.5,5.20101013 0.5,11 L0.5,54 C0.5,59.7989899 5.20101013,64.5 11,64.5 L147,64.5 C152.79899,64.5 157.5,59.7989899 157.5,54 L157.5,9 C157.5,4.30557963 153.69442,0.5 149,0.5 L11,0.5 Z"></path>
                    </g>
                    <g id="UTXO" transform="translate(5.000000, 35.000000)">
                        <g id="Rectangle-3">
                            <use fill="#4EA8B2" fill-rule="evenodd" xlink:href="#path-8"></use>
                            <rect x="0" y="0" width="148" height="25" rx="8"></rect>
                        </g>
                        <text id="20-million-TAPEX" font-family="OpenSans-Regular, Open Sans" font-size="10" font-weight="normal" fill="#FFFFFF">
                            <tspan x="46.5439453" y="17">19,999,900 TAPEX</tspan>
                        </text>
                        <g id="Lock" transform="translate(4.000000, 2.000000)">
                            <path d="M20.958,10.5064972 C20.958,16.2859061 16.2729116,20.9709945 10.4935028,20.9709945 C4.71409392,20.9709945 0.0290055249,16.2859061 0.0290055249,10.5064972 C0.0290055249,4.7270884 4.71409392,0.042 10.4935028,0.042 C16.2729116,0.042 20.958,4.7270884 20.958,10.5064972" id="Fill-1" fill="#FAFAF9"></path>
                            <path d="M20.958,10.5064972 C20.958,16.2859061 16.2729116,20.9709945 10.4935028,20.9709945 C4.71409392,20.9709945 0.0290055249,16.2859061 0.0290055249,10.5064972 C0.0290055249,4.7270884 4.71409392,0.042 10.4935028,0.042 C16.2729116,0.042 20.958,4.7270884 20.958,10.5064972 Z" id="Stroke-2" stroke="#C5D3DD"></path>
                            <path d="M20.958,10.5064972 C20.958,16.2859061 16.2729116,20.9709945 10.4935028,20.9709945 C4.71409392,20.9709945 0.0290055249,16.2859061 0.0290055249,10.5064972 C0.0290055249,4.7270884 4.71409392,0.042 10.4935028,0.042 C16.2729116,0.042 20.958,4.7270884 20.958,10.5064972 Z" id="Stroke-2" stroke="#C5D3DD"></path>
                            <path d="M11.2318674,13.2007044 C11.2333757,13.2199641 11.234768,13.2392818 11.234768,13.2590055 L11.234768,13.980489 C11.234768,14.3898729 10.9029448,14.7218122 10.4935028,14.7218122 C10.0840608,14.7218122 9.75217956,14.3898729 9.75217956,13.980489 L9.75217956,13.2590055 C9.75217956,13.2392818 9.75362983,13.2199641 9.75513812,13.2007044 C9.0699116,12.9122735 8.58882597,12.2345884 8.58882597,11.4444779 C8.58882597,10.3925635 9.4415884,9.5398011 10.4935028,9.5398011 C11.5454751,9.5398011 12.3981796,10.3925635 12.3981796,11.4444779 C12.3981796,12.2345884 11.9170939,12.9122735 11.2318674,13.2007044 Z M14.6939669,8.16702762 L6.29303867,8.16702762 C6.03819613,8.16702762 5.83161878,8.37360497 5.83161878,8.62844751 L5.83161878,15.7164116 C5.83161878,15.9711961 6.03819613,16.1778315 6.29303867,16.1778315 L14.6939669,16.1778315 C14.9488094,16.1778315 15.1553867,15.9711961 15.1553867,15.7164116 L15.1553867,8.62844751 C15.1553867,8.37360497 14.9488094,8.16702762 14.6939669,8.16702762 L14.6939669,8.16702762 Z" id="Fill-4" fill="#277CB3"></path>
                            <path d="M13.0284116,8.57310497 L13.0280055,7.3269116 C13.0208702,5.93760497 11.8839116,4.80644751 10.4935028,4.80644751 C9.10286188,4.80644751 7.9658453,5.93777901 7.95905801,7.32830387 L7.95859392,8.57310497 L6.47606354,8.57310497 L6.47948619,7.3226768 C6.49033425,5.11918508 8.29105525,3.32687569 10.4935028,3.32687569 C12.6960663,3.32687569 14.4967293,5.11866298 14.5075193,7.32105249 L14.510942,8.57310497 L13.0284116,8.57310497" id="Fill-5" fill="#277CB3"></path>
                        </g>
                    </g>
                    <g id="UTXO" transform="translate(5.000000, 5.000000)">
                        <g id="Rectangle-3">
                            <use fill="#C95383" fill-rule="evenodd" xlink:href="#path-9"></use>
                            <rect x="0" y="0" width="148" height="25" rx="8"></rect>
                        </g>
                        <text id="100-TSTRAT" font-family="OpenSans-Regular, Open Sans" font-size="10" font-weight="normal" fill="#FFFFFF">
                            <tspan x="80.0351562" y="17">100 TAPEX</tspan>
                        </text>
                        <g id="Unlock" transform="translate(4.000000, 2.000000)">
                            <path d="M10.4935028,20.9709945 C4.71409392,20.9709945 0.0290055249,16.2859061 0.0290055249,10.5064972 C0.0290055249,4.7270884 4.71409392,0.042 10.4935028,0.042 C16.2729116,0.042 20.958,4.7270884 20.958,10.5064972 C20.958,16.2859061 16.2729116,20.9709945 10.4935028,20.9709945 Z" id="Fill-1" fill="#FAFAF9"></path>
                            <path d="M20.958,10.5064972 C20.958,16.2859061 16.2729116,20.9709945 10.4935028,20.9709945 C4.71409392,20.9709945 0.0290055249,16.2859061 0.0290055249,10.5064972 C0.0290055249,4.7270884 4.71409392,0.042 10.4935028,0.042 C16.2729116,0.042 20.958,4.7270884 20.958,10.5064972 Z" id="Stroke-2" stroke="#C5D3DD"></path>
                            <path d="M11.2318674,13.2007044 C11.2333757,13.2199641 11.234768,13.2392818 11.234768,13.2590055 L11.234768,13.980489 C11.234768,14.3898729 10.9029448,14.7218122 10.4935028,14.7218122 C10.0840608,14.7218122 9.75217956,14.3898729 9.75217956,13.980489 L9.75217956,13.2590055 C9.75217956,13.2392818 9.75362983,13.2199641 9.75513812,13.2007044 C9.0699116,12.9122735 8.58882597,12.2345884 8.58882597,11.4444779 C8.58882597,10.3925635 9.4415884,9.5398011 10.4935028,9.5398011 C11.5454751,9.5398011 12.3981796,10.3925635 12.3981796,11.4444779 C12.3981796,12.2345884 11.9170939,12.9122735 11.2318674,13.2007044 Z M14.6939669,8.16702762 L6.29303867,8.16702762 C6.03819613,8.16702762 5.83161878,8.37360497 5.83161878,8.62844751 L5.83161878,15.7164116 C5.83161878,15.9711961 6.03819613,16.1778315 6.29303867,16.1778315 L14.6939669,16.1778315 C14.9488094,16.1778315 15.1553867,15.9711961 15.1553867,15.7164116 L15.1553867,8.62844751 C15.1553867,8.37360497 14.9488094,8.16702762 14.6939669,8.16702762 L14.6939669,8.16702762 Z" id="Fill-4" fill="#277CB3"></path>
                            <path d="M12.9851934,6.50773757 L12.3617486,5.42879006 C11.6609171,4.22912155 10.1106298,3.81799724 8.90655249,4.51320166 C7.70218508,5.2085221 7.28317127,6.75677901 7.97251657,7.96445304 L8.59456906,9.04270442 L7.31066851,9.7839116 L6.68838398,8.69933702 C5.59603591,6.7856105 6.25933425,4.33307735 8.16679558,3.23185359 C10.0741989,2.13062983 12.5295166,2.7819779 13.6400801,4.68387017 L14.2690359,5.76653039 L12.9851934,6.50773757" id="Fill-5" fill="#277CB3"></path>
                        </g>
                    </g>
                </g>
                <g id="Genesis-Block" transform="translate(442.000000, 329.000000)">
                    <g>
                        <use fill="#FFFFFF" fill-rule="evenodd" xlink:href="#path-10"></use>
                        <rect stroke="#828C96" stroke-width="1" x="0.5" y="0.5" width="157" height="22" rx="8"></rect>
                    </g>
                    <text font-family="OpenSans-Regular, Open Sans" font-size="10" font-weight="normal" fill="#000000">
                        <tspan x="46.8173828" y="16">Genesis Block</tspan>
                    </text>
                </g>
                <g id="Premining-Block" transform="translate(442.000000, 260.000000)">
                    <g>
                        <use fill="#FFFFFF" fill-rule="evenodd" xlink:href="#path-11"></use>
                        <path stroke="#828C96" stroke-width="1" d="M8,0.5 C3.85786438,0.5 0.5,3.85786438 0.5,8 L0.5,51 C0.5,55.1421356 3.85786438,58.5 8,58.5 L150,58.5 C154.142136,58.5 157.5,55.1421356 157.5,51 L157.5,8 C157.5,3.85786438 154.142136,0.5 150,0.5 L8,0.5 Z"></path>
                    </g>
                    <text font-family="OpenSans-Regular, Open Sans" font-size="10" font-weight="normal" fill="#000000">
                        <tspan x="41.2583008" y="19">Premining Block</tspan>
                    </text>
                    <g id="UTXO" transform="translate(5.000000, 29.000000)">
                        <g id="Rectangle-3">
                            <use fill="#4EA8B2" fill-rule="evenodd" xlink:href="#path-12"></use>
                            <rect x="0" y="0" width="148" height="25" rx="8"></rect>
                        </g>
                        <text id="20-million-TAPEX" font-family="OpenSans-Regular, Open Sans" font-size="10" font-weight="normal" fill="#FFFFFF">
                            <tspan x="46.9600527" y="16">20,000,000 TAPEX</tspan>
                        </text>
                        <g id="Unlock" transform="translate(4.000000, 2.000000)">
                            <path d="M10.4935028,20.9709945 C4.71409392,20.9709945 0.0290055249,16.2859061 0.0290055249,10.5064972 C0.0290055249,4.7270884 4.71409392,0.042 10.4935028,0.042 C16.2729116,0.042 20.958,4.7270884 20.958,10.5064972 C20.958,16.2859061 16.2729116,20.9709945 10.4935028,20.9709945 Z" id="Fill-1" fill="#FAFAF9"></path>
                            <path d="M20.958,10.5064972 C20.958,16.2859061 16.2729116,20.9709945 10.4935028,20.9709945 C4.71409392,20.9709945 0.0290055249,16.2859061 0.0290055249,10.5064972 C0.0290055249,4.7270884 4.71409392,0.042 10.4935028,0.042 C16.2729116,0.042 20.958,4.7270884 20.958,10.5064972 Z" id="Stroke-2" stroke="#C5D3DD"></path>
                            <path d="M11.2318674,13.2007044 C11.2333757,13.2199641 11.234768,13.2392818 11.234768,13.2590055 L11.234768,13.980489 C11.234768,14.3898729 10.9029448,14.7218122 10.4935028,14.7218122 C10.0840608,14.7218122 9.75217956,14.3898729 9.75217956,13.980489 L9.75217956,13.2590055 C9.75217956,13.2392818 9.75362983,13.2199641 9.75513812,13.2007044 C9.0699116,12.9122735 8.58882597,12.2345884 8.58882597,11.4444779 C8.58882597,10.3925635 9.4415884,9.5398011 10.4935028,9.5398011 C11.5454751,9.5398011 12.3981796,10.3925635 12.3981796,11.4444779 C12.3981796,12.2345884 11.9170939,12.9122735 11.2318674,13.2007044 Z M14.6939669,8.16702762 L6.29303867,8.16702762 C6.03819613,8.16702762 5.83161878,8.37360497 5.83161878,8.62844751 L5.83161878,15.7164116 C5.83161878,15.9711961 6.03819613,16.1778315 6.29303867,16.1778315 L14.6939669,16.1778315 C14.9488094,16.1778315 15.1553867,15.9711961 15.1553867,15.7164116 L15.1553867,8.62844751 C15.1553867,8.37360497 14.9488094,8.16702762 14.6939669,8.16702762 L14.6939669,8.16702762 Z" id="Fill-4" fill="#277CB3"></path>
                            <path d="M12.9851934,6.50773757 L12.3617486,5.42879006 C11.6609171,4.22912155 10.1106298,3.81799724 8.90655249,4.51320166 C7.70218508,5.2085221 7.28317127,6.75677901 7.97251657,7.96445304 L8.59456906,9.04270442 L7.31066851,9.7839116 L6.68838398,8.69933702 C5.59603591,6.7856105 6.25933425,4.33307735 8.16679558,3.23185359 C10.0741989,2.13062983 12.5295166,2.7819779 13.6400801,4.68387017 L14.2690359,5.76653039 L12.9851934,6.50773757" id="Fill-5" fill="#277CB3"></path>
                        </g>
                    </g>
                </g>
                <path d="M441.5,67.5 C409.833333,44.5 375.666667,35.3333333 339,40 C302.333333,44.6666667 268.166667,66.1666667 236.5,104.5" id="Line-4" stroke="#765F97" stroke-width="3" stroke-linecap="square"></path>
                <path id="Line-4-decoration-1" d="M236.5,104.5 L245.691205,98.0842574 L241.065434,94.2629687 L236.5,104.5 Z" stroke="#765F97" stroke-width="3" stroke-linecap="square"></path>
                <path d="M193.5,109.5 L0,70.5" id="Line-4" stroke="#765F97" stroke-width="3" stroke-linecap="square"></path>
                <path id="Line-4-decoration-1" d="M0,70.5 L9.99437111,75.5746966 L11.1798348,69.6929728 L0,70.5 Z" stroke="#765F97" stroke-width="3" stroke-linecap="square"></path>
            </g>
        </g>
    </g>
</svg>